<svg xmlns="http://www.w3.org/2000/svg" xmlns:xlink="http://www.w3.org/1999/xlink" zoomAndPan="magnify" preserveAspectRatio="xMidYMid meet" version="1.0" viewBox="105.08 53.27 164.92 268.53"><defs><clipPath id="id1"><path d="M 148 100 L 258 100 L 258 321.796875 L 148 321.796875 Z M 148 100 " clip-rule="nonzero"/></clipPath><clipPath id="id2"><path d="M 168 53.296875 L 270 53.296875 L 270 196 L 168 196 Z M 168 53.296875 " clip-rule="nonzero"/></clipPath><clipPath id="id3"><path d="M 105.027344 154 L 175 154 L 175 302 L 105.027344 302 Z M 105.027344 154 " clip-rule="nonzero"/></clipPath></defs><g clip-path="url(#id1)"><path fill="#000000" d="M 240.847656 321.222656 C 240.847656 321.230469 240.847656 321.238281 240.839844 321.238281 C 240.726562 321.710938 241.285156 321.980469 241.625 321.640625 C 290.554688 272.707031 215.101562 209.992188 204.613281 200.363281 L 200.125 196.191406 C 198.617188 194.8125 197.1875 193.332031 195.714844 191.914062 C 192.753906 189.089844 189.976562 186.050781 187.144531 183.078125 C 181.601562 176.996094 176.332031 170.59375 171.78125 163.570312 C 171.226562 162.691406 170.625 161.835938 170.101562 160.921875 L 168.550781 158.175781 C 167.46875 156.382812 166.625 154.421875 165.710938 152.511719 C 165.230469 151.570312 164.910156 150.542969 164.515625 149.558594 L 163.949219 148.058594 C 163.765625 147.5625 163.558594 147.074219 163.425781 146.542969 L 162.554688 143.453125 L 162.347656 142.703125 C 162.347656 142.691406 162.339844 142.675781 162.339844 142.667969 L 162.191406 141.890625 L 161.894531 140.304688 C 161.703125 139.25 161.476562 138.199219 161.421875 137.117188 C 161.335938 136.046875 161.214844 134.980469 161.160156 133.917969 C 161.160156 133.910156 161.160156 133.902344 161.160156 133.882812 L 161.1875 130.679688 C 161.195312 130.40625 161.1875 130.136719 161.207031 129.875 L 161.292969 129.074219 L 161.46875 127.480469 C 161.988281 123.253906 163 119.117188 164.5 115.246094 C 165.960938 111.359375 167.679688 107.605469 169.605469 104.015625 C 170.066406 103.101562 170.546875 102.203125 171.050781 101.324219 L 171.3125 100.863281 C 171.546875 100.433594 171.035156 100 170.648438 100.285156 C 166.753906 103.1875 151.585938 124.753906 148.449219 144.6875 L 148.25 147.371094 C 148.222656 148.261719 148.242188 149.160156 148.242188 150.046875 C 148.25 150.492188 148.222656 150.9375 148.257812 151.378906 L 148.46875 154.027344 L 148.519531 154.691406 C 148.546875 154.910156 148.589844 155.125 148.617188 155.34375 L 149.015625 157.957031 C 149.070312 158.394531 149.183594 158.820312 149.285156 159.257812 L 149.589844 160.546875 C 149.921875 162.28125 150.566406 163.953125 151.082031 165.644531 C 151.359375 166.488281 151.742188 167.308594 152.058594 168.136719 C 152.398438 168.964844 152.667969 169.808594 153.09375 170.609375 C 153.894531 172.230469 154.585938 173.878906 155.523438 175.445312 C 159.035156 181.796875 163.375 187.835938 168.175781 193.558594 C 169.394531 194.980469 170.5625 196.445312 171.828125 197.835938 L 175.625 202.011719 C 176.90625 203.386719 178.257812 204.730469 179.5625 206.089844 L 181.53125 208.128906 L 183.570312 210.125 L 187.648438 214.097656 L 191.839844 217.980469 L 193.929688 219.925781 L 196.066406 221.832031 L 200.335938 225.660156 C 203.210938 228.183594 206.128906 230.640625 209.046875 233.167969 C 210.554688 234.527344 212.105469 235.835938 213.578125 237.230469 L 215.773438 239.347656 L 216.871094 240.410156 L 217.925781 241.515625 L 220.035156 243.738281 C 220.730469 244.476562 221.394531 245.269531 222.0625 246.039062 C 222.726562 246.824219 223.429688 247.5625 224.058594 248.382812 L 225.976562 250.804688 C 226.621094 251.605469 227.203125 252.460938 227.804688 253.296875 C 228.398438 254.140625 229.015625 254.96875 229.582031 255.832031 C 230.6875 257.582031 231.847656 259.289062 232.839844 261.121094 C 236.996094 268.300781 240.074219 276.195312 241.78125 284.359375 C 241.980469 285.378906 242.226562 286.398438 242.371094 287.425781 L 242.84375 290.519531 C 243.070312 292.582031 243.296875 294.65625 243.359375 296.730469 C 243.539062 300.878906 243.445312 305.023438 242.992188 309.113281 C 242.574219 313.207031 241.832031 317.242188 240.890625 321.195312 Z M 240.847656 321.222656 " fill-opacity="1" fill-rule="nonzero"/></g><g clip-path="url(#id2)"><path fill="#000000" d="M 212.113281 90.242188 L 237.652344 53.296875 Z M 190.621094 83.800781 L 190.601562 83.8125 Z M 234.800781 137.359375 C 227.238281 127.636719 223.667969 128.726562 222.386719 129.816406 C 222.117188 130.042969 221.707031 129.953125 221.558594 129.632812 C 220.589844 127.507812 217.011719 123.59375 215.476562 121.972656 C 215.179688 121.660156 215.363281 121.136719 215.789062 121.078125 C 229.171875 119.289062 235.316406 132.585938 235.75 136.996094 C 235.804688 137.527344 235.125 137.789062 234.792969 137.371094 Z M 212.121094 90.242188 L 212.148438 90.207031 L 237.660156 53.296875 C 213.046875 68.746094 206.222656 70.191406 190.621094 83.800781 L 190.609375 83.8125 C 182.980469 90.433594 175.84375 99.695312 171.320312 113.601562 C 169.875 118.035156 169.210938 122.617188 168.984375 127.132812 L 168.925781 128.820312 L 168.890625 129.667969 C 168.890625 129.945312 168.917969 130.234375 168.933594 130.511719 L 169.117188 133.859375 C 169.117188 133.875 169.117188 133.882812 169.117188 133.902344 C 169.246094 135.007812 169.449219 136.113281 169.597656 137.210938 C 169.71875 138.328125 170.023438 139.410156 170.300781 140.496094 L 170.710938 142.125 L 170.910156 142.917969 C 170.910156 142.9375 170.921875 142.953125 170.929688 142.964844 L 171.199219 143.738281 L 172.3125 146.929688 C 172.480469 147.46875 172.734375 147.972656 172.96875 148.496094 L 173.664062 150.046875 C 174.152344 151.074219 174.535156 152.128906 175.128906 153.113281 C 176.261719 155.109375 177.238281 157.148438 178.550781 159.054688 L 180.410156 161.957031 C 181.035156 162.917969 181.765625 163.832031 182.429688 164.773438 C 187.882812 172.246094 194.253906 179.15625 200.882812 185.824219 C 204.289062 189.089844 207.652344 192.375 211.191406 195.527344 C 211.285156 195.617188 211.382812 195.703125 211.488281 195.800781 C 207.261719 191.347656 177.019531 156.5625 183.308594 129.015625 C 183.449219 128.402344 184.363281 128.542969 184.355469 129.171875 C 184.109375 145.046875 185.617188 171.804688 224.03125 175.054688 C 232.660156 175.054688 246.9375 193.796875 251.582031 195.257812 C 258.046875 197.296875 272.1875 184.601562 269.703125 176.011719 C 266.996094 166.617188 248.304688 140.558594 242.554688 128.742188 C 236.867188 117.042969 219.582031 95.320312 212.113281 90.242188 Z M 212.121094 90.242188 " fill-opacity="1" fill-rule="nonzero"/></g><path fill="#000000" d="M 199.949219 317.421875 C 207.851562 310.199219 214.003906 296.128906 214.578125 293.042969 C 215.144531 289.96875 215.519531 286.867188 215.722656 283.78125 C 215.929688 280.691406 215.859375 277.605469 215.597656 274.554688 C 215.496094 273.03125 215.242188 271.515625 215.042969 270.007812 L 214.632812 267.757812 C 214.5 267.011719 214.292969 266.277344 214.125 265.527344 C 213.386719 262.574219 212.480469 259.664062 211.261719 256.867188 C 210.074219 254.0625 208.734375 251.316406 207.128906 248.703125 C 206.382812 247.371094 205.484375 246.117188 204.636719 244.835938 C 204.203125 244.199219 203.722656 243.589844 203.269531 242.972656 C 202.808594 242.351562 202.363281 241.726562 201.867188 241.132812 L 200.414062 239.328125 C 199.941406 238.71875 199.394531 238.160156 198.886719 237.570312 C 198.363281 236.992188 197.867188 236.394531 197.328125 235.835938 L 195.699219 234.152344 L 194.890625 233.316406 L 194.035156 232.507812 L 192.328125 230.894531 C 191.1875 229.824219 189.964844 228.820312 188.789062 227.785156 C 186.289062 225.613281 183.738281 223.445312 181.226562 221.242188 L 177.5 217.886719 L 175.632812 216.203125 L 173.8125 214.472656 L 170.179688 210.996094 L 166.625 207.421875 C 161.902344 202.628906 157.363281 197.601562 153.171875 192.210938 C 152.09375 190.894531 151.117188 189.472656 150.113281 188.089844 C 149.617188 187.390625 149.105469 186.710938 148.625 185.988281 L 147.214844 183.820312 C 146.742188 183.09375 146.261719 182.382812 145.808594 181.640625 L 144.503906 179.382812 C 144.085938 178.617188 143.625 177.886719 143.238281 177.101562 L 142.074219 174.738281 C 141.253906 173.199219 140.644531 171.515625 139.957031 169.902344 C 139.597656 169.101562 139.355469 168.230469 139.058594 167.394531 C 138.777344 166.550781 138.472656 165.714844 138.246094 164.851562 C 137.828125 163.109375 137.316406 161.398438 137.082031 159.605469 L 136.855469 158.28125 C 136.785156 157.835938 136.695312 157.402344 136.671875 156.949219 L 136.433594 154.265625 C 136.417969 154.039062 136.390625 153.820312 136.382812 153.59375 L 136.382812 150.230469 C 136.382812 149.785156 136.433594 149.339844 136.460938 148.886719 C 136.53125 148 136.582031 147.101562 136.679688 146.222656 L 137.070312 143.589844 C 137.175781 142.710938 137.421875 141.867188 137.601562 141.003906 C 137.792969 140.148438 137.976562 139.285156 138.246094 138.457031 L 138.988281 135.957031 L 139.851562 133.519531 C 140.929688 130.609375 142.167969 127.800781 143.511719 125.074219 C 143.703125 124.675781 143.179688 124.324219 142.882812 124.65625 C 110.375 160.851562 124.203125 196.242188 153.660156 221.109375 C 193.667969 254.882812 220.589844 287.695312 199.410156 316.925781 C 199.148438 317.285156 199.636719 317.746094 199.960938 317.449219 Z M 199.949219 317.421875 " fill-opacity="1" fill-rule="nonzero"/><g clip-path="url(#id3)"><path fill="#000000" d="M 162.816406 301.921875 C 168.839844 296.417969 173.515625 285.699219 173.960938 283.355469 C 174.398438 281.011719 174.675781 278.652344 174.832031 276.296875 C 174.996094 273.945312 174.9375 271.59375 174.746094 269.265625 C 174.667969 268.097656 174.476562 266.949219 174.316406 265.800781 L 174.003906 264.082031 C 173.898438 263.507812 173.742188 262.949219 173.621094 262.382812 C 173.054688 260.136719 172.367188 257.914062 171.441406 255.789062 C 170.535156 253.652344 169.515625 251.5625 168.296875 249.566406 C 167.722656 248.546875 167.042969 247.597656 166.398438 246.621094 C 166.066406 246.144531 165.703125 245.671875 165.363281 245.203125 C 165.011719 244.730469 164.671875 244.253906 164.289062 243.800781 L 163.183594 242.421875 C 162.828125 241.960938 162.40625 241.535156 162.023438 241.082031 C 161.625 240.644531 161.25 240.191406 160.839844 239.757812 L 159.59375 238.476562 L 158.976562 237.839844 L 158.332031 237.21875 L 157.03125 235.992188 C 156.160156 235.183594 155.238281 234.414062 154.339844 233.621094 C 152.433594 231.964844 150.488281 230.320312 148.582031 228.636719 L 145.742188 226.085938 L 144.320312 224.804688 L 142.933594 223.480469 L 140.164062 220.832031 L 137.453125 218.105469 C 133.855469 214.453125 130.398438 210.628906 127.207031 206.515625 C 126.390625 205.515625 125.648438 204.433594 124.875 203.378906 C 124.5 202.847656 124.097656 202.324219 123.742188 201.785156 L 122.660156 200.128906 C 122.304688 199.570312 121.9375 199.03125 121.597656 198.464844 L 120.605469 196.738281 C 120.28125 196.15625 119.933594 195.597656 119.636719 194.996094 L 118.75 193.203125 C 118.128906 192.027344 117.660156 190.746094 117.136719 189.515625 C 116.859375 188.90625 116.675781 188.246094 116.457031 187.609375 C 116.25 186.964844 116.011719 186.328125 115.839844 185.675781 C 115.523438 184.339844 115.132812 183.042969 114.949219 181.683594 L 114.785156 180.671875 C 114.730469 180.332031 114.664062 180.003906 114.644531 179.652344 L 114.472656 177.605469 C 114.460938 177.433594 114.4375 177.265625 114.4375 177.09375 L 114.4375 174.523438 C 114.4375 174.183594 114.480469 173.84375 114.496094 173.503906 C 114.550781 172.824219 114.59375 172.144531 114.664062 171.472656 L 114.96875 169.46875 C 115.046875 168.796875 115.230469 168.152344 115.367188 167.5 C 115.515625 166.84375 115.65625 166.191406 115.855469 165.554688 L 116.414062 163.648438 L 117.066406 161.792969 C 117.886719 159.570312 118.835938 157.4375 119.855469 155.363281 C 120.003906 155.058594 119.601562 154.785156 119.375 155.039062 C 94.613281 182.609375 105.148438 209.566406 127.582031 228.507812 C 158.058594 254.238281 178.570312 279.226562 162.433594 301.488281 C 162.234375 301.765625 162.601562 302.113281 162.851562 301.878906 Z M 162.816406 301.921875 " fill-opacity="1" fill-rule="nonzero"/></g></svg>