<svg xmlns="http://www.w3.org/2000/svg" xmlns:xlink="http://www.w3.org/1999/xlink" zoomAndPan="magnify" preserveAspectRatio="xMidYMid meet" version="1.0" viewBox="105.8 54.45 163.43 266.28"><defs><clipPath id="id1"><path d="M 148 100 L 258 100 L 258 320.703125 L 148 320.703125 Z M 148 100 " clip-rule="nonzero"/></clipPath><clipPath id="id2"><path d="M 169 54.453125 L 269.238281 54.453125 L 269.238281 196 L 169 196 Z M 169 54.453125 " clip-rule="nonzero"/></clipPath><clipPath id="id3"><path d="M 105.738281 155 L 176 155 L 176 302 L 105.738281 302 Z M 105.738281 155 " clip-rule="nonzero"/></clipPath></defs><g clip-path="url(#id1)"><path fill="#ffffff" d="M 240.324219 320.132812 C 240.324219 320.144531 240.324219 320.152344 240.316406 320.152344 C 240.203125 320.617188 240.757812 320.886719 241.09375 320.550781 C 289.578125 272.027344 214.8125 209.835938 204.417969 200.289062 L 199.972656 196.152344 C 198.476562 194.785156 197.0625 193.316406 195.601562 191.910156 C 192.667969 189.109375 189.914062 186.09375 187.109375 183.148438 C 181.617188 177.117188 176.394531 170.765625 171.886719 163.800781 C 171.335938 162.929688 170.738281 162.082031 170.222656 161.175781 L 168.683594 158.453125 C 167.613281 156.675781 166.777344 154.730469 165.871094 152.839844 C 165.394531 151.90625 165.074219 150.886719 164.6875 149.910156 L 164.125 148.421875 C 163.945312 147.929688 163.738281 147.445312 163.609375 146.921875 L 162.746094 143.851562 L 162.535156 143.109375 C 162.535156 143.101562 162.527344 143.082031 162.527344 143.074219 L 162.382812 142.304688 L 162.089844 140.734375 C 161.898438 139.6875 161.671875 138.644531 161.621094 137.570312 C 161.535156 136.507812 161.414062 135.453125 161.363281 134.402344 C 161.363281 134.390625 161.363281 134.382812 161.363281 134.367188 L 161.390625 131.1875 C 161.398438 130.917969 161.390625 130.652344 161.40625 130.390625 L 161.492188 129.597656 L 161.664062 128.015625 C 162.183594 123.824219 163.183594 119.722656 164.667969 115.886719 C 166.121094 112.03125 167.820312 108.308594 169.730469 104.75 C 170.1875 103.839844 170.660156 102.949219 171.160156 102.078125 L 171.421875 101.621094 C 171.652344 101.195312 171.144531 100.765625 170.765625 101.050781 C 166.90625 103.925781 151.875 125.3125 148.765625 145.078125 L 148.566406 147.742188 C 148.542969 148.621094 148.558594 149.511719 148.558594 150.394531 C 148.566406 150.832031 148.542969 151.273438 148.578125 151.714844 L 148.679688 153.027344 L 148.785156 154.339844 L 148.835938 155 C 148.863281 155.214844 148.90625 155.429688 148.929688 155.644531 L 149.328125 158.238281 C 149.378906 158.671875 149.492188 159.09375 149.59375 159.527344 L 149.898438 160.804688 C 150.226562 162.523438 150.863281 164.183594 151.375 165.859375 C 151.648438 166.695312 152.03125 167.507812 152.339844 168.328125 C 152.675781 169.152344 152.945312 169.988281 153.367188 170.785156 C 154.164062 172.390625 154.84375 174.023438 155.777344 175.578125 C 159.257812 181.878906 163.554688 187.863281 168.3125 193.542969 C 169.523438 194.949219 170.679688 196.402344 171.929688 197.785156 L 175.695312 201.921875 C 176.964844 203.289062 178.300781 204.617188 179.597656 205.964844 L 181.546875 207.988281 L 183.566406 209.964844 L 187.609375 213.90625 L 191.761719 217.757812 L 193.832031 219.6875 L 195.949219 221.578125 L 200.179688 225.371094 C 203.027344 227.875 205.921875 230.3125 208.8125 232.820312 C 210.304688 234.167969 211.84375 235.460938 213.300781 236.84375 L 215.476562 238.945312 L 216.566406 240 L 217.609375 241.097656 L 219.699219 243.300781 C 220.390625 244.035156 221.046875 244.820312 221.710938 245.578125 C 222.367188 246.359375 223.066406 247.09375 223.6875 247.902344 L 225.585938 250.304688 C 226.226562 251.101562 226.804688 251.949219 227.398438 252.777344 C 227.988281 253.613281 228.601562 254.4375 229.160156 255.292969 C 230.257812 257.027344 231.40625 258.722656 232.390625 260.535156 C 236.507812 267.65625 239.554688 275.484375 241.246094 283.578125 C 241.445312 284.589844 241.6875 285.601562 241.835938 286.621094 L 242.300781 289.6875 C 242.527344 291.734375 242.75 293.792969 242.8125 295.847656 C 242.992188 299.960938 242.898438 304.074219 242.449219 308.125 C 242.035156 312.1875 241.300781 316.1875 240.367188 320.109375 Z M 240.324219 320.132812 " fill-opacity="1" fill-rule="nonzero"/></g><g clip-path="url(#id2)"><path fill="#ffffff" d="M 211.851562 91.089844 L 237.15625 54.453125 Z M 190.550781 84.703125 L 190.535156 84.710938 Z M 234.332031 137.8125 C 226.839844 128.171875 223.300781 129.25 222.03125 130.332031 C 221.761719 130.554688 221.355469 130.46875 221.210938 130.148438 C 220.25 128.042969 216.703125 124.164062 215.183594 122.554688 C 214.890625 122.246094 215.070312 121.726562 215.496094 121.664062 C 228.753906 119.894531 234.84375 133.078125 235.273438 137.449219 C 235.324219 137.976562 234.652344 138.238281 234.324219 137.820312 Z M 211.859375 91.089844 L 211.886719 91.054688 L 237.164062 54.453125 C 212.773438 69.773438 206.015625 71.207031 190.550781 84.703125 L 190.542969 84.710938 C 182.980469 91.277344 175.910156 100.460938 171.429688 114.253906 C 169.996094 118.648438 169.339844 123.195312 169.117188 127.671875 L 169.054688 129.347656 L 169.019531 130.183594 C 169.019531 130.460938 169.046875 130.746094 169.0625 131.023438 L 169.246094 134.339844 C 169.246094 134.359375 169.246094 134.367188 169.246094 134.382812 C 169.375 135.480469 169.574219 136.578125 169.71875 137.667969 C 169.839844 138.773438 170.144531 139.84375 170.417969 140.925781 L 170.824219 142.539062 L 171.023438 143.324219 C 171.023438 143.34375 171.03125 143.359375 171.039062 143.367188 L 171.308594 144.136719 L 172.414062 147.300781 C 172.578125 147.835938 172.828125 148.335938 173.0625 148.855469 L 173.75 150.394531 C 174.234375 151.414062 174.613281 152.457031 175.203125 153.433594 C 176.324219 155.414062 177.292969 157.433594 178.59375 159.328125 L 180.433594 162.203125 C 181.054688 163.15625 181.78125 164.0625 182.4375 164.996094 C 187.839844 172.40625 194.152344 179.257812 200.722656 185.867188 C 204.097656 189.109375 207.429688 192.367188 210.9375 195.492188 C 211.03125 195.582031 211.125 195.667969 211.230469 195.761719 C 207.042969 191.347656 177.074219 156.855469 183.308594 129.535156 C 183.445312 128.929688 184.355469 129.070312 184.34375 129.691406 C 184.101562 145.433594 185.597656 171.96875 223.660156 175.191406 C 232.207031 175.191406 246.359375 193.773438 250.960938 195.226562 C 257.367188 197.246094 271.378906 184.660156 268.917969 176.140625 C 266.234375 166.828125 247.714844 140.984375 242.015625 129.269531 C 236.378906 117.664062 219.25 96.125 211.851562 91.089844 Z M 211.859375 91.089844 " fill-opacity="1" fill-rule="nonzero"/></g><path fill="#ffffff" d="M 199.800781 316.367188 C 207.628906 309.203125 213.726562 295.25 214.292969 292.191406 C 214.855469 289.144531 215.226562 286.066406 215.425781 283.007812 C 215.632812 279.941406 215.5625 276.882812 215.304688 273.859375 C 215.199219 272.347656 214.949219 270.84375 214.753906 269.347656 L 214.347656 267.121094 C 214.214844 266.375 214.007812 265.652344 213.84375 264.90625 C 213.113281 261.980469 212.214844 259.09375 211.003906 256.320312 C 209.832031 253.539062 208.5 250.816406 206.914062 248.222656 C 206.171875 246.902344 205.28125 245.65625 204.445312 244.386719 C 204.011719 243.757812 203.539062 243.152344 203.089844 242.539062 C 202.628906 241.925781 202.191406 241.304688 201.699219 240.714844 L 200.257812 238.925781 C 199.789062 238.324219 199.246094 237.769531 198.746094 237.183594 C 198.226562 236.613281 197.734375 236.015625 197.199219 235.460938 L 195.585938 233.796875 L 194.78125 232.964844 L 193.9375 232.164062 L 192.246094 230.5625 C 191.113281 229.5 189.90625 228.507812 188.738281 227.480469 C 186.261719 225.328125 183.730469 223.175781 181.246094 220.992188 L 177.550781 217.664062 L 175.703125 215.996094 L 173.898438 214.277344 L 170.296875 210.828125 L 166.777344 207.289062 C 162.097656 202.535156 157.597656 197.550781 153.445312 192.203125 C 152.375 190.898438 151.410156 189.488281 150.414062 188.117188 C 149.921875 187.425781 149.414062 186.75 148.9375 186.03125 L 147.539062 183.882812 C 147.074219 183.164062 146.601562 182.457031 146.152344 181.722656 L 144.855469 179.484375 C 144.441406 178.722656 143.984375 177.996094 143.605469 177.21875 L 142.445312 174.878906 C 141.636719 173.351562 141.03125 171.683594 140.347656 170.082031 C 139.996094 169.289062 139.753906 168.425781 139.460938 167.59375 C 139.183594 166.757812 138.882812 165.929688 138.65625 165.074219 C 138.242188 163.34375 137.734375 161.652344 137.5 159.871094 L 137.277344 158.558594 C 137.207031 158.117188 137.121094 157.683594 137.09375 157.234375 L 136.859375 154.574219 C 136.84375 154.351562 136.816406 154.132812 136.808594 153.910156 L 136.808594 150.574219 C 136.808594 150.132812 136.859375 149.695312 136.886719 149.242188 C 136.957031 148.363281 137.007812 147.472656 137.101562 146.601562 L 137.492188 143.992188 C 137.59375 143.117188 137.835938 142.28125 138.019531 141.425781 C 138.207031 140.578125 138.390625 139.722656 138.65625 138.902344 L 139.390625 136.421875 L 140.246094 134.003906 C 141.316406 131.117188 142.542969 128.335938 143.871094 125.632812 C 144.0625 125.234375 143.542969 124.886719 143.25 125.214844 C 111.039062 161.105469 124.738281 196.203125 153.929688 220.859375 C 193.574219 254.347656 220.25 286.886719 199.265625 315.875 C 199.003906 316.230469 199.488281 316.6875 199.808594 316.394531 Z M 199.800781 316.367188 " fill-opacity="1" fill-rule="nonzero"/><g clip-path="url(#id3)"><path fill="#ffffff" d="M 163.003906 300.996094 C 168.96875 295.535156 173.605469 284.910156 174.046875 282.585938 C 174.476562 280.261719 174.753906 277.917969 174.910156 275.585938 C 175.074219 273.253906 175.011719 270.921875 174.824219 268.613281 C 174.746094 267.457031 174.554688 266.316406 174.398438 265.175781 L 174.089844 263.472656 C 173.984375 262.902344 173.828125 262.351562 173.707031 261.789062 C 173.148438 259.558594 172.464844 257.355469 171.550781 255.25 C 170.652344 253.132812 169.640625 251.058594 168.433594 249.078125 C 167.863281 248.070312 167.191406 247.125 166.550781 246.160156 C 166.222656 245.683594 165.859375 245.21875 165.523438 244.75 C 165.179688 244.285156 164.84375 243.808594 164.460938 243.359375 L 163.367188 241.996094 C 163.011719 241.535156 162.597656 241.113281 162.21875 240.664062 C 161.820312 240.230469 161.449219 239.78125 161.042969 239.351562 L 159.808594 238.082031 L 159.195312 237.449219 L 158.558594 236.835938 L 157.269531 235.617188 C 156.40625 234.816406 155.492188 234.054688 154.601562 233.269531 C 152.710938 231.625 150.785156 229.992188 148.894531 228.324219 L 146.082031 225.792969 L 144.675781 224.523438 L 143.300781 223.210938 L 140.554688 220.585938 L 137.871094 217.878906 C 134.304688 214.261719 130.878906 210.46875 127.71875 206.390625 C 126.90625 205.394531 126.171875 204.324219 125.40625 203.277344 C 125.035156 202.75 124.636719 202.234375 124.28125 201.699219 L 123.210938 200.054688 C 122.859375 199.503906 122.496094 198.96875 122.160156 198.40625 L 121.175781 196.695312 C 120.855469 196.117188 120.507812 195.5625 120.214844 194.96875 L 119.335938 193.1875 C 118.722656 192.019531 118.257812 190.75 117.738281 189.53125 C 117.460938 188.925781 117.28125 188.269531 117.066406 187.640625 C 116.859375 187 116.625 186.371094 116.453125 185.722656 C 116.140625 184.398438 115.753906 183.113281 115.570312 181.765625 L 115.40625 180.761719 C 115.355469 180.425781 115.285156 180.097656 115.269531 179.75 L 115.097656 177.722656 C 115.085938 177.546875 115.0625 177.382812 115.0625 177.210938 L 115.0625 174.664062 C 115.0625 174.324219 115.105469 173.988281 115.121094 173.652344 C 115.175781 172.976562 115.21875 172.304688 115.285156 171.640625 L 115.589844 169.652344 C 115.667969 168.988281 115.847656 168.347656 115.984375 167.699219 C 116.132812 167.050781 116.269531 166.402344 116.46875 165.773438 L 117.023438 163.878906 L 117.667969 162.039062 C 118.480469 159.835938 119.421875 157.71875 120.433594 155.664062 C 120.578125 155.359375 120.179688 155.09375 119.957031 155.34375 C 95.421875 182.679688 105.859375 209.414062 128.089844 228.195312 C 158.289062 253.710938 178.613281 278.488281 162.625 300.566406 C 162.425781 300.839844 162.789062 301.1875 163.039062 300.953125 Z M 163.003906 300.996094 " fill-opacity="1" fill-rule="nonzero"/></g></svg>